# xmcd
#
# Track frame offsets:
#      150
#      15484
#      32445
#      48495
#      67915
#      83622
#      101955
#      118302
#      139707
#      156020
#      166662
#      182050
#      200722
# 
# Disc length: 2928 seconds
#
# Revision: 2
# Processed by: cddbd v1.4PL0 Copyright (c) Steve Scherf et al.
#
# Submitted via: FreeRIP 1.21
#
DISCID=a50b6e0d
DTITLE=Anne Murray - What A Wonderful World - Disc 1
DYEAR=1999
DGENRE=Country
TTITLE0=Lord I Hope This Day Is Good
TTITLE1=Amazing Grace
TTITLE2=Lean On Me
TTITLE3=Just A Closer Walk With Thee - Take My Hand Lord Jesus (Duet With Tommy West)
TTITLE4=Let It Be
TTITLE5=Softly And Tenderly
TTITLE6=Let There Be Love
TTITLE7=I Believe In You
TTITLE8=It Is No Secret
TTITLE9=What A Wonderful World
TTITLE10=Peace In The Valley
TTITLE11=The Other Side
TTITLE12=The Old Rugged Cross
EXTD=disc 1 of 2
EXTT0=
EXTT1=
EXTT2=
EXTT3=
EXTT4=
EXTT5=
EXTT6=
EXTT7=
EXTT8=
EXTT9=
EXTT10=
EXTT11=
EXTT12=
PLAYORDER=
